<svg width="32" height="32" viewBox="0 0 32 32" fill="none" xmlns="http://www.w3.org/2000/svg">
<path d="M26.6666 16C26.6666 13.171 25.5428 10.4579 23.5424 8.45752C21.542 6.45713 18.8289 5.33332 16 5.33332C13.171 5.33332 10.4579 6.45713 8.45749 8.45752C6.4571 10.4579 5.33329 13.171 5.33329 16C5.33329 18.829 6.4571 21.5421 8.45749 23.5425C10.4579 25.5428 13.171 26.6667 16 26.6667C18.8289 26.6667 21.542 25.5428 23.5424 23.5425C25.5428 21.5421 26.6666 18.829 26.6666 16ZM29.3333 16C29.3333 19.5362 27.9285 22.9276 25.428 25.4281C22.9276 27.9286 19.5362 29.3333 16 29.3333C14.249 29.3333 12.5152 28.9884 10.8975 28.3184C9.27984 27.6483 7.80998 26.6662 6.57187 25.4281C4.07138 22.9276 2.66663 19.5362 2.66663 16C2.66663 12.4638 4.07138 9.07238 6.57187 6.5719C9.07235 4.07141 12.4637 2.66666 16 2.66666C17.7509 2.66666 19.4847 3.01153 21.1024 3.6816C22.7201 4.35166 24.1899 5.33378 25.428 6.5719C26.6662 7.81001 27.6483 9.27987 28.3184 10.8975C28.9884 12.5152 29.3333 14.249 29.3333 16ZM13.3333 12.6667C13.3333 13.7333 12.4 14.6667 11.3333 14.6667C10.2666 14.6667 9.33329 13.7333 9.33329 12.6667C9.33329 11.6 10.2666 10.6667 11.3333 10.6667C12.4 10.6667 13.3333 11.6 13.3333 12.6667ZM22.6666 12.6667C22.6666 13.7333 21.7333 14.6667 20.6666 14.6667C19.6 14.6667 18.6666 13.7333 18.6666 12.6667C18.6666 11.6 19.6 10.6667 20.6666 10.6667C21.7333 10.6667 22.6666 11.6 22.6666 12.6667ZM16 22.9733C13.6666 22.9733 11.6133 22 10.4133 20.56L12.3066 18.6667C12.9066 19.6267 14.3333 20.3067 16 20.3067C17.6666 20.3067 19.0933 19.6267 19.6933 18.6667L21.5866 20.56C20.3866 22 18.3333 22.9733 16 22.9733Z" fill="#1864AB"/>
</svg>
