<svg width="32" height="32" viewBox="0 0 32 32" fill="none" xmlns="http://www.w3.org/2000/svg">
<path d="M7.53334 13.3667L10.1333 14.4667C10.4444 13.8444 10.7667 13.2444 11.1 12.6667C11.4333 12.0889 11.8 11.5111 12.2 10.9333L10.3333 10.5667L7.53334 13.3667ZM12.2667 16.1333L16.0667 19.9C17 19.5444 18 19 19.0667 18.2667C20.1333 17.5333 21.1333 16.7 22.0667 15.7667C23.6222 14.2111 24.8391 12.4835 25.7173 10.584C26.5956 8.68443 26.9787 6.93421 26.8667 5.33332C25.2667 5.22221 23.5111 5.60577 21.6 6.48399C19.6889 7.36221 17.9556 8.57865 16.4 10.1333C15.4667 11.0667 14.6333 12.0667 13.9 13.1333C13.1667 14.2 12.6222 15.2 12.2667 16.1333ZM18.2 13.9667C17.6889 13.4555 17.4333 12.828 17.4333 12.084C17.4333 11.34 17.6889 10.712 18.2 10.2C18.7111 9.68799 19.3444 9.43243 20.1 9.43332C20.8556 9.43421 21.4889 9.68977 22 10.2C22.5111 10.7102 22.7667 11.3382 22.7667 12.084C22.7667 12.8298 22.5111 13.4573 22 13.9667C21.4889 14.476 20.8556 14.7315 20.1 14.7333C19.3444 14.7351 18.7111 14.4795 18.2 13.9667ZM18.8333 24.6667L21.6333 21.8667L21.2667 20C20.6889 20.4 20.1111 20.7609 19.5333 21.0827C18.9556 21.4044 18.3556 21.7213 17.7333 22.0333L18.8333 24.6667ZM29.2667 2.89999C29.6889 5.58888 29.428 8.20577 28.484 10.7507C27.54 13.2955 25.912 15.7231 23.6 18.0333L24.2667 21.3333C24.3556 21.7778 24.3333 22.2111 24.2 22.6333C24.0667 23.0555 23.8444 23.4222 23.5333 23.7333L17.9333 29.3333L15.1333 22.7667L9.43334 17.0667L2.86667 14.2667L8.43334 8.66665C8.74445 8.35554 9.11689 8.13332 9.55067 7.99999C9.98445 7.86665 10.4231 7.84443 10.8667 7.93332L14.1667 8.59999C16.4778 6.28888 18.9 4.65554 21.4333 3.69999C23.9667 2.74443 26.5778 2.47777 29.2667 2.89999ZM5.23334 21.3C6.01112 20.5222 6.96134 20.128 8.084 20.1173C9.20667 20.1067 10.1564 20.4898 10.9333 21.2667C11.7102 22.0435 12.0938 22.9938 12.084 24.1173C12.0742 25.2409 11.6796 26.1907 10.9 26.9667C10.3444 27.5222 9.41689 28 8.11734 28.4C6.81778 28.8 5.02312 29.1555 2.73334 29.4667C3.04445 27.1778 3.4 25.3831 3.8 24.0827C4.2 22.7822 4.67778 21.8547 5.23334 21.3ZM7.13334 23.1667C6.91112 23.3889 6.68889 23.7947 6.46667 24.384C6.24445 24.9733 6.08889 25.5675 6 26.1667C6.6 26.0778 7.19467 25.928 7.784 25.7173C8.37334 25.5067 8.77867 25.2898 9 25.0667C9.26667 24.8 9.41111 24.4778 9.43334 24.1C9.45556 23.7222 9.33334 23.4 9.06667 23.1333C8.8 22.8667 8.47778 22.7387 8.1 22.7493C7.72223 22.76 7.4 22.8991 7.13334 23.1667Z" fill="#1864AB"/>
</svg>
