<svg width="32" height="32" viewBox="0 0 32 32" fill="none" xmlns="http://www.w3.org/2000/svg">
<path d="M16 21.3333C18.2666 19.2889 19.7222 17.8498 20.3666 17.016C21.0111 16.1822 21.3333 15.3547 21.3333 14.5333C21.3333 13.7333 21.0444 13.0444 20.4666 12.4667C19.8889 11.8889 19.2 11.6 18.4 11.6C17.9333 11.6 17.4831 11.6942 17.0493 11.8827C16.6155 12.0711 16.2658 12.3324 16 12.6667C15.7333 12.3333 15.3889 12.0724 14.9666 11.884C14.5444 11.6955 14.0889 11.6009 13.6 11.6C12.8 11.6 12.1111 11.8889 11.5333 12.4667C10.9555 13.0444 10.6666 13.7333 10.6666 14.5333C10.6666 14.9555 10.7222 15.3444 10.8333 15.7C10.9444 16.0555 11.1889 16.4724 11.5666 16.9507C11.9444 17.4289 12.4831 18.012 13.1826 18.7C13.8822 19.388 14.8213 20.2658 16 21.3333ZM16 29.3333C12.9111 28.5555 10.3609 26.7831 8.34931 24.016C6.33776 21.2489 5.33242 18.1769 5.33331 14.8V6.66666L16 2.66666L26.6666 6.66666V14.8C26.6666 18.1778 25.6613 21.2502 23.6506 24.0173C21.64 26.7844 19.0898 28.5564 16 29.3333ZM16 26.5333C18.3111 25.8 20.2222 24.3333 21.7333 22.1333C23.2444 19.9333 24 17.4889 24 14.8V8.49999L16 5.49999L7.99998 8.49999V14.8C7.99998 17.4889 8.75554 19.9333 10.2666 22.1333C11.7778 24.3333 13.6889 25.8 16 26.5333Z" fill="#1864AB"/>
</svg>
